<svg version="1.2" baseProfile="tiny-ps" viewBox="0 0 300 300" fill="none" xmlns="http://www.w3.org/2000/svg">
	<title>Adrien Bailliard</title>
<rect width="300" height="300" fill="#0F0F0F"/>
<path d="M151.282 62.9639C152.131 61.2274 154.227 60.5077 155.964 61.3564C157.593 62.1527 158.326 64.0459 157.71 65.7109L164.087 111.089L228.636 76.7686C230.099 75.9907 231.915 76.546 232.693 78.0088C233.471 79.4717 232.915 81.2886 231.452 82.0664L164.976 117.412L178.154 211.179C178.385 212.819 177.242 214.337 175.602 214.567C173.961 214.798 172.443 213.654 172.213 212.014L159.339 120.409L128.921 136.583L79.625 225.515L73.6455 237.749C72.7967 239.486 70.7005 240.205 68.9639 239.356C67.2272 238.508 66.5077 236.411 67.3564 234.675L110.517 146.368L86.6494 159.06C85.1865 159.837 83.3696 159.282 82.5918 157.819C81.814 156.356 82.3692 154.54 83.832 153.762L115.004 137.187L151.282 62.9639ZM134.262 126.947L158.45 114.086L155 89.5361L134.262 126.947ZM130.773 120.864L153.612 79.6621L153.009 75.3711L130.773 120.864Z" fill="white"/>
</svg>
